<svg xmlns="http://www.w3.org/2000/svg" width="65" height="65" viewBox="0 0 65 65">
  <g id="link_hover" transform="translate(-621 -2665)">
    <circle id="Ellipse_4" data-name="Ellipse 4" cx="32.5" cy="32.5" r="32.5" transform="translate(621 2665)" opacity="0.3"/>
    <path id="link" d="M25.253,13.609l-1.985,1.985-1.5-1.5,1.985-1.985A5.291,5.291,0,1,0,16.274,4.63L9.952,10.954a5.291,5.291,0,0,0,7.483,7.483l1.5,1.5A7.407,7.407,0,0,1,8.455,9.458l6.323-6.323A7.407,7.407,0,0,1,25.253,13.609ZM10.561,15.924l-.275.273,1.492,1.5.277-.275a5.291,5.291,0,0,1,7.483,7.483l-6.4,6.4a5.291,5.291,0,0,1-7.483-7.483L7.9,21.584l-1.5-1.5L4.16,22.329A7.408,7.408,0,0,0,14.638,32.8l6.4-6.4a7.409,7.409,0,0,0-10.476-10.48Z" transform="translate(638.701 2679.962)" fill="#fff"/>
  </g>
</svg>
